<svg width="426" height="500" viewBox="0 0 426 500" fill="none" xmlns="http://www.w3.org/2000/svg">
<path fill-rule="evenodd" clip-rule="evenodd" d="M33 0H208C304.65 0 383 78.3502 383 175C383 271.65 304.65 350 208 350C111.35 350 33 271.65 33 175V0ZM133.758 100.758H208C249.003 100.758 282.242 133.997 282.242 175C282.242 216.003 249.003 249.242 208 249.242C166.997 249.242 133.758 216.003 133.758 175V100.758ZM35.5299 393.18H0.439941V497H35.5299C43.7466 497 51.1416 495.743 57.7149 493.23C64.2883 490.717 69.8949 487.188 74.5349 482.645C79.1749 478.102 82.7033 472.64 85.1199 466.26C87.6333 459.88 88.8899 452.823 88.8899 445.09C88.8899 437.453 87.6333 430.445 85.1199 424.065C82.7033 417.685 79.1749 412.223 74.5349 407.68C69.8949 403.04 64.2883 399.463 57.7149 396.95C51.1416 394.437 43.7466 393.18 35.5299 393.18ZM49.7399 476.12C45.3899 477.667 40.3633 478.44 34.6599 478.44H20.0149V411.74H34.6599C40.3633 411.74 45.3899 412.562 49.7399 414.205C54.0899 415.752 57.7149 417.975 60.6149 420.875C63.5149 423.775 65.6899 427.303 67.1399 431.46C68.5899 435.52 69.3149 440.063 69.3149 445.09C69.3149 450.117 68.5899 454.708 67.1399 458.865C65.6899 462.925 63.5149 466.405 60.6149 469.305C57.7149 472.205 54.0899 474.477 49.7399 476.12ZM154.155 493.955C159.761 490.378 164.208 485.69 167.495 479.89L151.69 472.06C150.046 475.057 147.775 477.57 144.875 479.6C142.071 481.533 138.495 482.5 134.145 482.5C131.921 482.5 129.746 482.21 127.62 481.63C125.493 480.953 123.511 479.938 121.675 478.585C119.935 477.135 118.436 475.395 117.18 473.365C116.02 471.238 115.246 468.725 114.86 465.825H168.365C168.365 465.245 168.413 464.713 168.51 464.23C168.51 463.747 168.558 463.215 168.655 462.635V460.895C168.655 455.578 167.881 450.648 166.335 446.105C164.788 441.562 162.516 437.647 159.52 434.36C156.523 430.977 152.801 428.367 148.355 426.53C143.908 424.597 138.833 423.63 133.13 423.63C127.716 423.63 122.738 424.645 118.195 426.675C113.748 428.705 109.881 431.46 106.595 434.94C103.308 438.323 100.746 442.335 98.9097 446.975C97.073 451.518 96.1547 456.352 96.1547 461.475C96.1547 466.985 97.073 472.06 98.9097 476.7C100.843 481.243 103.501 485.207 106.885 488.59C110.268 491.973 114.231 494.632 118.775 496.565C123.415 498.402 128.441 499.32 133.855 499.32C141.878 499.32 148.645 497.532 154.155 493.955ZM148.935 448.135C149.708 449.682 150.143 451.083 150.24 452.34H115.875C117.131 448.183 119.306 444.945 122.4 442.625C125.493 440.305 129.07 439.145 133.13 439.145C136.03 439.145 138.495 439.58 140.525 440.45C142.651 441.32 144.391 442.432 145.745 443.785C147.195 445.138 148.258 446.588 148.935 448.135ZM171.83 425.95H193.435L211.125 471.19H212.14L229.975 425.95H251.435L220.84 497H202.135L171.83 425.95ZM279.078 393.18H260.083V497H279.078V393.18ZM361.914 479.89C358.627 485.69 354.18 490.378 348.574 493.955C343.064 497.532 336.297 499.32 328.274 499.32C322.86 499.32 317.834 498.402 313.194 496.565C308.65 494.632 304.687 491.973 301.304 488.59C297.92 485.207 295.262 481.243 293.329 476.7C291.492 472.06 290.574 466.985 290.574 461.475C290.574 456.352 291.492 451.518 293.329 446.975C295.165 442.335 297.727 438.323 301.014 434.94C304.3 431.46 308.167 428.705 312.614 426.675C317.157 424.645 322.135 423.63 327.549 423.63C333.252 423.63 338.327 424.597 342.774 426.53C347.22 428.367 350.942 430.977 353.939 434.36C356.935 437.647 359.207 441.562 360.754 446.105C362.3 450.648 363.074 455.578 363.074 460.895V462.635C362.977 463.215 362.929 463.747 362.929 464.23C362.832 464.713 362.784 465.245 362.784 465.825H309.279C309.665 468.725 310.439 471.238 311.599 473.365C312.855 475.395 314.354 477.135 316.094 478.585C317.93 479.938 319.912 480.953 322.039 481.63C324.165 482.21 326.34 482.5 328.564 482.5C332.914 482.5 336.49 481.533 339.294 479.6C342.194 477.57 344.465 475.057 346.109 472.06L361.914 479.89ZM344.659 452.34C344.562 451.083 344.127 449.682 343.354 448.135C342.677 446.588 341.614 445.138 340.164 443.785C338.81 442.432 337.07 441.32 334.944 440.45C332.914 439.58 330.449 439.145 327.549 439.145C323.489 439.145 319.912 440.305 316.819 442.625C313.725 444.945 311.55 448.183 310.294 452.34H344.659ZM393.04 425.95H375.205V497H394.2V462.2C394.2 459.3 394.587 456.642 395.36 454.225C396.23 451.712 397.39 449.537 398.84 447.7C400.387 445.863 402.223 444.462 404.35 443.495C406.477 442.432 408.845 441.9 411.455 441.9C413.485 441.9 415.177 442.093 416.53 442.48C417.98 442.77 419.285 443.205 420.445 443.785L425.52 426.53C424.263 425.757 422.717 425.128 420.88 424.645C419.14 424.162 417.013 423.92 414.5 423.92C412.47 423.92 410.392 424.21 408.265 424.79C406.235 425.37 404.302 426.192 402.465 427.255C400.725 428.318 399.13 429.575 397.68 431.025C396.23 432.475 395.07 434.07 394.2 435.81H393.04V425.95Z" fill="white"/>
</svg>
