<svg width="698" height="698" viewBox="0 0 698 698" fill="none" xmlns="http://www.w3.org/2000/svg">
<path fill-rule="evenodd" clip-rule="evenodd" d="M407.035 37.5846C381.242 -12.5282 316.758 -12.5282 290.965 37.5846L161.26 289.581C150.753 309.995 171.907 334.837 194.695 332.034C205.609 330.691 216.724 330 228 330C377.117 330 498 450.883 498 600C498 603.548 497.932 607.081 497.796 610.596C497.724 612.461 498.38 614.28 499.622 615.674C505.904 622.72 511.59 629.214 516.823 635.191L516.823 635.191C559.07 683.441 571.817 698 630.886 698C682.474 698 714.715 635.359 688.922 585.246L407.035 37.5846ZM464.076 583.539C467.555 586.047 472.495 583.502 472.136 579.229C461.577 453.654 356.303 355 228 355C208.387 355 189.313 357.313 171.034 361.674C131.487 371.11 102.845 403.115 84.2379 439.264L9.09385 585.25C-16.6997 635.363 15.538 698 67.1251 698C127.423 698 138.718 684.997 178.719 638.875L179.064 638.477C185.003 631.629 191.577 624.049 199.031 615.688C271.018 534.939 381.788 524.234 464.076 583.539Z" fill="#FFAF29"/>
</svg>
